<mxfile host="app.diagrams.net" agent="Mozilla/5.0 (Windows NT 10.0; Win64; x64) AppleWebKit/537.36 (KHTML, like Gecko) Chrome/131.0.0.0 Safari/537.36 OPR/116.0.0.0" version="26.0.13">
  <diagram name="Página-1" id="kt-jXuJPiAMiyOJnumTS">
    <mxGraphModel dx="1341" dy="759" grid="1" gridSize="10" guides="1" tooltips="1" connect="1" arrows="1" fold="1" page="1" pageScale="1" pageWidth="1654" pageHeight="2336" math="0" shadow="0">
      <root>
        <mxCell id="0" />
        <mxCell id="1" parent="0" />
        <mxCell id="MLMGz1Fp6XSrk4uzT6Uj-4" style="edgeStyle=orthogonalEdgeStyle;rounded=0;orthogonalLoop=1;jettySize=auto;html=1;" edge="1" parent="1" source="MLMGz1Fp6XSrk4uzT6Uj-1" target="MLMGz1Fp6XSrk4uzT6Uj-2">
          <mxGeometry relative="1" as="geometry" />
        </mxCell>
        <mxCell id="MLMGz1Fp6XSrk4uzT6Uj-1" value="Inicio" style="ellipse;whiteSpace=wrap;html=1;" vertex="1" parent="1">
          <mxGeometry x="438.75" y="30" width="160" height="60" as="geometry" />
        </mxCell>
        <mxCell id="MLMGz1Fp6XSrk4uzT6Uj-5" style="edgeStyle=orthogonalEdgeStyle;rounded=0;orthogonalLoop=1;jettySize=auto;html=1;entryX=0.5;entryY=0;entryDx=0;entryDy=0;" edge="1" parent="1" source="MLMGz1Fp6XSrk4uzT6Uj-2" target="MLMGz1Fp6XSrk4uzT6Uj-3">
          <mxGeometry relative="1" as="geometry" />
        </mxCell>
        <mxCell id="MLMGz1Fp6XSrk4uzT6Uj-2" value="&quot;Monto de compra&quot;" style="shape=document;whiteSpace=wrap;html=1;boundedLbl=1;" vertex="1" parent="1">
          <mxGeometry x="452.5" y="120" width="132.5" height="80" as="geometry" />
        </mxCell>
        <mxCell id="MLMGz1Fp6XSrk4uzT6Uj-8" style="edgeStyle=orthogonalEdgeStyle;rounded=0;orthogonalLoop=1;jettySize=auto;html=1;entryX=0.5;entryY=0;entryDx=0;entryDy=0;" edge="1" parent="1" source="MLMGz1Fp6XSrk4uzT6Uj-3" target="MLMGz1Fp6XSrk4uzT6Uj-7">
          <mxGeometry relative="1" as="geometry" />
        </mxCell>
        <mxCell id="MLMGz1Fp6XSrk4uzT6Uj-9" style="edgeStyle=orthogonalEdgeStyle;rounded=0;orthogonalLoop=1;jettySize=auto;html=1;entryX=0.5;entryY=0;entryDx=0;entryDy=0;" edge="1" parent="1" source="MLMGz1Fp6XSrk4uzT6Uj-3" target="MLMGz1Fp6XSrk4uzT6Uj-6">
          <mxGeometry relative="1" as="geometry" />
        </mxCell>
        <mxCell id="MLMGz1Fp6XSrk4uzT6Uj-3" value="Monto &amp;gt; 1000" style="rhombus;whiteSpace=wrap;html=1;" vertex="1" parent="1">
          <mxGeometry x="446.88" y="240" width="143.75" height="80" as="geometry" />
        </mxCell>
        <mxCell id="MLMGz1Fp6XSrk4uzT6Uj-18" style="edgeStyle=orthogonalEdgeStyle;rounded=0;orthogonalLoop=1;jettySize=auto;html=1;entryX=0;entryY=0.5;entryDx=0;entryDy=0;" edge="1" parent="1" source="MLMGz1Fp6XSrk4uzT6Uj-6" target="MLMGz1Fp6XSrk4uzT6Uj-14">
          <mxGeometry relative="1" as="geometry">
            <Array as="points">
              <mxPoint x="379" y="450" />
              <mxPoint x="380" y="520" />
            </Array>
          </mxGeometry>
        </mxCell>
        <mxCell id="MLMGz1Fp6XSrk4uzT6Uj-6" value="Aplicar 10% de descuanto" style="rounded=0;whiteSpace=wrap;html=1;" vertex="1" parent="1">
          <mxGeometry x="318.75" y="360" width="120" height="60" as="geometry" />
        </mxCell>
        <mxCell id="MLMGz1Fp6XSrk4uzT6Uj-17" style="edgeStyle=orthogonalEdgeStyle;rounded=0;orthogonalLoop=1;jettySize=auto;html=1;entryX=1;entryY=0.5;entryDx=0;entryDy=0;" edge="1" parent="1" source="MLMGz1Fp6XSrk4uzT6Uj-7" target="MLMGz1Fp6XSrk4uzT6Uj-14">
          <mxGeometry relative="1" as="geometry">
            <Array as="points">
              <mxPoint x="660" y="520" />
            </Array>
          </mxGeometry>
        </mxCell>
        <mxCell id="MLMGz1Fp6XSrk4uzT6Uj-7" value="No se aplica el descuento" style="rounded=0;whiteSpace=wrap;html=1;" vertex="1" parent="1">
          <mxGeometry x="598.75" y="360" width="120" height="60" as="geometry" />
        </mxCell>
        <mxCell id="MLMGz1Fp6XSrk4uzT6Uj-10" value="Si" style="text;html=1;align=center;verticalAlign=middle;resizable=0;points=[];autosize=1;strokeColor=none;fillColor=none;" vertex="1" parent="1">
          <mxGeometry x="425" y="258" width="30" height="30" as="geometry" />
        </mxCell>
        <mxCell id="MLMGz1Fp6XSrk4uzT6Uj-11" value="No" style="text;html=1;align=center;verticalAlign=middle;resizable=0;points=[];autosize=1;strokeColor=none;fillColor=none;" vertex="1" parent="1">
          <mxGeometry x="580" y="258" width="40" height="30" as="geometry" />
        </mxCell>
        <mxCell id="MLMGz1Fp6XSrk4uzT6Uj-16" style="edgeStyle=orthogonalEdgeStyle;rounded=0;orthogonalLoop=1;jettySize=auto;html=1;entryX=0.5;entryY=0;entryDx=0;entryDy=0;" edge="1" parent="1" source="MLMGz1Fp6XSrk4uzT6Uj-14" target="MLMGz1Fp6XSrk4uzT6Uj-15">
          <mxGeometry relative="1" as="geometry" />
        </mxCell>
        <mxCell id="MLMGz1Fp6XSrk4uzT6Uj-14" value="&quot;El total a pagar&quot;" style="shape=document;whiteSpace=wrap;html=1;boundedLbl=1;" vertex="1" parent="1">
          <mxGeometry x="454.26" y="480" width="129" height="80" as="geometry" />
        </mxCell>
        <mxCell id="MLMGz1Fp6XSrk4uzT6Uj-15" value="Fin" style="ellipse;whiteSpace=wrap;html=1;" vertex="1" parent="1">
          <mxGeometry x="451.25" y="620" width="135" height="80" as="geometry" />
        </mxCell>
        <mxCell id="MLMGz1Fp6XSrk4uzT6Uj-22" style="edgeStyle=orthogonalEdgeStyle;rounded=0;orthogonalLoop=1;jettySize=auto;html=1;entryX=0.5;entryY=0;entryDx=0;entryDy=0;" edge="1" parent="1" source="MLMGz1Fp6XSrk4uzT6Uj-19" target="MLMGz1Fp6XSrk4uzT6Uj-20">
          <mxGeometry relative="1" as="geometry" />
        </mxCell>
        <mxCell id="MLMGz1Fp6XSrk4uzT6Uj-19" value="Inicio" style="ellipse;whiteSpace=wrap;html=1;" vertex="1" parent="1">
          <mxGeometry x="1010" y="25" width="160" height="70" as="geometry" />
        </mxCell>
        <mxCell id="MLMGz1Fp6XSrk4uzT6Uj-23" style="edgeStyle=orthogonalEdgeStyle;rounded=0;orthogonalLoop=1;jettySize=auto;html=1;" edge="1" parent="1" source="MLMGz1Fp6XSrk4uzT6Uj-20" target="MLMGz1Fp6XSrk4uzT6Uj-21">
          <mxGeometry relative="1" as="geometry" />
        </mxCell>
        <mxCell id="MLMGz1Fp6XSrk4uzT6Uj-20" value="Solicitar número 1 (A)" style="rounded=1;whiteSpace=wrap;html=1;" vertex="1" parent="1">
          <mxGeometry x="1020" y="150" width="140" height="60" as="geometry" />
        </mxCell>
        <mxCell id="MLMGz1Fp6XSrk4uzT6Uj-26" style="edgeStyle=orthogonalEdgeStyle;rounded=0;orthogonalLoop=1;jettySize=auto;html=1;entryX=0.5;entryY=0;entryDx=0;entryDy=0;" edge="1" parent="1" source="MLMGz1Fp6XSrk4uzT6Uj-21" target="MLMGz1Fp6XSrk4uzT6Uj-24">
          <mxGeometry relative="1" as="geometry" />
        </mxCell>
        <mxCell id="MLMGz1Fp6XSrk4uzT6Uj-21" value="A" style="shape=parallelogram;perimeter=parallelogramPerimeter;whiteSpace=wrap;html=1;fixedSize=1;" vertex="1" parent="1">
          <mxGeometry x="1035" y="248" width="110" height="50" as="geometry" />
        </mxCell>
        <mxCell id="MLMGz1Fp6XSrk4uzT6Uj-27" style="edgeStyle=orthogonalEdgeStyle;rounded=0;orthogonalLoop=1;jettySize=auto;html=1;entryX=0.5;entryY=0;entryDx=0;entryDy=0;" edge="1" parent="1" source="MLMGz1Fp6XSrk4uzT6Uj-24" target="MLMGz1Fp6XSrk4uzT6Uj-25">
          <mxGeometry relative="1" as="geometry" />
        </mxCell>
        <mxCell id="MLMGz1Fp6XSrk4uzT6Uj-24" value="Solicitar número 2 (B)" style="rounded=1;whiteSpace=wrap;html=1;" vertex="1" parent="1">
          <mxGeometry x="1020" y="340" width="140" height="60" as="geometry" />
        </mxCell>
        <mxCell id="MLMGz1Fp6XSrk4uzT6Uj-29" style="edgeStyle=orthogonalEdgeStyle;rounded=0;orthogonalLoop=1;jettySize=auto;html=1;" edge="1" parent="1" source="MLMGz1Fp6XSrk4uzT6Uj-25" target="MLMGz1Fp6XSrk4uzT6Uj-28">
          <mxGeometry relative="1" as="geometry" />
        </mxCell>
        <mxCell id="MLMGz1Fp6XSrk4uzT6Uj-25" value="B" style="shape=parallelogram;perimeter=parallelogramPerimeter;whiteSpace=wrap;html=1;fixedSize=1;" vertex="1" parent="1">
          <mxGeometry x="1032.5" y="440" width="115" height="50" as="geometry" />
        </mxCell>
        <mxCell id="MLMGz1Fp6XSrk4uzT6Uj-32" style="edgeStyle=orthogonalEdgeStyle;rounded=0;orthogonalLoop=1;jettySize=auto;html=1;entryX=0.5;entryY=0;entryDx=0;entryDy=0;" edge="1" parent="1" source="MLMGz1Fp6XSrk4uzT6Uj-28" target="MLMGz1Fp6XSrk4uzT6Uj-30">
          <mxGeometry relative="1" as="geometry" />
        </mxCell>
        <mxCell id="MLMGz1Fp6XSrk4uzT6Uj-33" style="edgeStyle=orthogonalEdgeStyle;rounded=0;orthogonalLoop=1;jettySize=auto;html=1;entryX=0.5;entryY=0;entryDx=0;entryDy=0;" edge="1" parent="1" source="MLMGz1Fp6XSrk4uzT6Uj-28" target="MLMGz1Fp6XSrk4uzT6Uj-31">
          <mxGeometry relative="1" as="geometry">
            <Array as="points">
              <mxPoint x="942" y="595" />
            </Array>
          </mxGeometry>
        </mxCell>
        <mxCell id="MLMGz1Fp6XSrk4uzT6Uj-28" value="B&amp;nbsp;≠ 0" style="rhombus;whiteSpace=wrap;html=1;" vertex="1" parent="1">
          <mxGeometry x="1012.19" y="540" width="155.62" height="110" as="geometry" />
        </mxCell>
        <mxCell id="MLMGz1Fp6XSrk4uzT6Uj-45" style="edgeStyle=orthogonalEdgeStyle;rounded=0;orthogonalLoop=1;jettySize=auto;html=1;entryX=1;entryY=0.5;entryDx=0;entryDy=0;" edge="1" parent="1" source="MLMGz1Fp6XSrk4uzT6Uj-30" target="MLMGz1Fp6XSrk4uzT6Uj-42">
          <mxGeometry relative="1" as="geometry">
            <Array as="points">
              <mxPoint x="1240" y="840" />
              <mxPoint x="1185" y="840" />
              <mxPoint x="1185" y="1000" />
            </Array>
          </mxGeometry>
        </mxCell>
        <mxCell id="MLMGz1Fp6XSrk4uzT6Uj-30" value="&quot;No se puede dividir por cero&quot;" style="shape=document;whiteSpace=wrap;html=1;boundedLbl=1;" vertex="1" parent="1">
          <mxGeometry x="1170" y="640" width="140" height="80" as="geometry" />
        </mxCell>
        <mxCell id="MLMGz1Fp6XSrk4uzT6Uj-38" style="edgeStyle=orthogonalEdgeStyle;rounded=0;orthogonalLoop=1;jettySize=auto;html=1;entryX=0.5;entryY=0;entryDx=0;entryDy=0;" edge="1" parent="1" source="MLMGz1Fp6XSrk4uzT6Uj-31" target="MLMGz1Fp6XSrk4uzT6Uj-37">
          <mxGeometry relative="1" as="geometry">
            <Array as="points">
              <mxPoint x="1082" y="690" />
            </Array>
          </mxGeometry>
        </mxCell>
        <mxCell id="MLMGz1Fp6XSrk4uzT6Uj-39" style="edgeStyle=orthogonalEdgeStyle;rounded=0;orthogonalLoop=1;jettySize=auto;html=1;entryX=0.5;entryY=0;entryDx=0;entryDy=0;" edge="1" parent="1" source="MLMGz1Fp6XSrk4uzT6Uj-31" target="MLMGz1Fp6XSrk4uzT6Uj-36">
          <mxGeometry relative="1" as="geometry">
            <Array as="points">
              <mxPoint x="802" y="690" />
            </Array>
          </mxGeometry>
        </mxCell>
        <mxCell id="MLMGz1Fp6XSrk4uzT6Uj-31" value="A % B == 0" style="rhombus;whiteSpace=wrap;html=1;" vertex="1" parent="1">
          <mxGeometry x="872.19" y="640" width="140" height="100" as="geometry" />
        </mxCell>
        <mxCell id="MLMGz1Fp6XSrk4uzT6Uj-34" value="No" style="text;html=1;align=center;verticalAlign=middle;resizable=0;points=[];autosize=1;strokeColor=none;fillColor=none;" vertex="1" parent="1">
          <mxGeometry x="1160" y="570" width="40" height="30" as="geometry" />
        </mxCell>
        <mxCell id="MLMGz1Fp6XSrk4uzT6Uj-35" value="Si" style="text;html=1;align=center;verticalAlign=middle;resizable=0;points=[];autosize=1;strokeColor=none;fillColor=none;" vertex="1" parent="1">
          <mxGeometry x="990" y="570" width="30" height="30" as="geometry" />
        </mxCell>
        <mxCell id="MLMGz1Fp6XSrk4uzT6Uj-43" style="edgeStyle=orthogonalEdgeStyle;rounded=0;orthogonalLoop=1;jettySize=auto;html=1;entryX=0;entryY=0.5;entryDx=0;entryDy=0;" edge="1" parent="1" source="MLMGz1Fp6XSrk4uzT6Uj-36" target="MLMGz1Fp6XSrk4uzT6Uj-42">
          <mxGeometry relative="1" as="geometry" />
        </mxCell>
        <mxCell id="MLMGz1Fp6XSrk4uzT6Uj-36" value="&quot;A es multiplo de B&quot;" style="shape=document;whiteSpace=wrap;html=1;boundedLbl=1;" vertex="1" parent="1">
          <mxGeometry x="732.19" y="800" width="140" height="80" as="geometry" />
        </mxCell>
        <mxCell id="MLMGz1Fp6XSrk4uzT6Uj-44" style="edgeStyle=orthogonalEdgeStyle;rounded=0;orthogonalLoop=1;jettySize=auto;html=1;" edge="1" parent="1" source="MLMGz1Fp6XSrk4uzT6Uj-37" target="MLMGz1Fp6XSrk4uzT6Uj-42">
          <mxGeometry relative="1" as="geometry" />
        </mxCell>
        <mxCell id="MLMGz1Fp6XSrk4uzT6Uj-37" value="&quot;A no es multiplo de B&quot;" style="shape=document;whiteSpace=wrap;html=1;boundedLbl=1;" vertex="1" parent="1">
          <mxGeometry x="1012.19" y="800" width="140" height="80" as="geometry" />
        </mxCell>
        <mxCell id="MLMGz1Fp6XSrk4uzT6Uj-40" value="Si" style="text;html=1;align=center;verticalAlign=middle;resizable=0;points=[];autosize=1;strokeColor=none;fillColor=none;" vertex="1" parent="1">
          <mxGeometry x="850" y="665" width="30" height="30" as="geometry" />
        </mxCell>
        <mxCell id="MLMGz1Fp6XSrk4uzT6Uj-41" value="No" style="text;html=1;align=center;verticalAlign=middle;resizable=0;points=[];autosize=1;strokeColor=none;fillColor=none;" vertex="1" parent="1">
          <mxGeometry x="1000" y="665" width="40" height="30" as="geometry" />
        </mxCell>
        <mxCell id="MLMGz1Fp6XSrk4uzT6Uj-42" value="Fin" style="ellipse;whiteSpace=wrap;html=1;" vertex="1" parent="1">
          <mxGeometry x="1010" y="960" width="155" height="80" as="geometry" />
        </mxCell>
      </root>
    </mxGraphModel>
  </diagram>
</mxfile>
